<svg enable-background="new 0 0 130 120" viewBox="0 0 130 120" xmlns="http://www.w3.org/2000/svg"><path d="m-200-1350h2180v1700h-2180z" fill="#d8d8d8"/><path d="m0 0h130v13.3h-130z" fill="#dc4437"/><path d="m0 26.7h130v13.3h-130z" fill="#dc4437"/><path d="m0 80h130v13.3h-130z" fill="#dc4437"/><path d="m0 106.7h130v13.3h-130z" fill="#dc4437"/><path d="m0 53.3h130v13.3h-130z" fill="#dc4437"/><path d="m0 13.3h130v13.3h-130z" fill="#fff"/><path d="m0 40h130v13.3h-130z" fill="#fff"/><path d="m0 93.3h130v13.3h-130z" fill="#fff"/><path d="m0 66.7h130v13.3h-130z" fill="#fff"/><path d="m0 0h70v66.7h-70z" fill="#2a66b7"/><g fill="#fff"><path d="m13.5 4 2.3 4.9 5.2.8-3.8 3.9.9 5.4-4.6-2.6-4.6 2.6.9-5.4-3.8-3.9 5.2-.8z"/><path d="m34 4 2.3 4.9 5.2.8-3.7 3.9.8 5.4-4.6-2.6-4.6 2.6.8-5.4-3.7-3.9 5.2-.8z"/><path d="m54.5 4 2.3 4.9 5.2.8-3.8 3.9.9 5.4-4.6-2.6-4.6 2.6.9-5.4-3.8-3.9 5.2-.8z"/><path d="m24 24 2.3 4.9 5.2.8-3.7 3.9.8 5.4-4.6-2.6-4.6 2.6.8-5.4-3.7-3.9 5.2-.8z"/><path d="m44.5 24 2.3 4.9 5.2.8-3.8 3.9.9 5.4-4.6-2.6-4.6 2.6.9-5.4-3.8-3.9 5.2-.8z"/><path d="m13.5 45.2 2.3 4.9 5.2.8-3.8 3.8.9 5.5-4.6-2.6-4.6 2.6.9-5.5-3.8-3.8 5.2-.8z"/><path d="m34 45.2 2.3 4.9 5.2.8-3.7 3.8.8 5.5-4.6-2.6-4.6 2.6.8-5.5-3.7-3.8 5.2-.8z"/><path d="m54.5 45.2 2.3 4.9 5.2.8-3.8 3.8.9 5.5-4.6-2.6-4.6 2.6.9-5.5-3.8-3.8 5.2-.8z"/></g></svg>